<?xml version="1.0" standalone="no"?>
<!DOCTYPE svg PUBLIC "-//W3C//DTD SVG 20010904//EN"
 "http://www.w3.org/TR/2001/REC-SVG-20010904/DTD/svg10.dtd">
<svg version="1.0" xmlns="http://www.w3.org/2000/svg"
 width="1123.000000pt" height="1123.000000pt" viewBox="0 0 1123.000000 1123.000000"
 preserveAspectRatio="xMidYMid meet">
<metadata>
Created by potrace 1.14, written by Peter Selinger 2001-2017
</metadata>
<g transform="translate(0.000000,1123.000000) scale(0.100000,-0.100000)"
fill="#000000" stroke="none">
<path d="M5398 9855 c-2 -1 -46 -6 -98 -9 -52 -4 -106 -9 -120 -11 -14 -2 -47
-6 -75 -10 -27 -3 -59 -8 -70 -10 -11 -1 -38 -6 -60 -9 -34 -6 -83 -15 -165
-31 -8 -2 -15 -4 -15 -5 0 -1 -16 -4 -35 -6 -19 -3 -42 -8 -50 -11 -21 -9 -42
-13 -67 -16 -13 -1 -23 -5 -23 -8 0 -3 -6 -6 -12 -6 -45 0 -382 -118 -543
-189 -22 -10 -42 -18 -45 -19 -13 -3 -222 -109 -275 -140 -33 -19 -69 -39 -80
-45 -11 -5 -45 -25 -75 -44 -30 -20 -72 -45 -92 -56 -21 -11 -38 -25 -38 -30
0 -6 -5 -10 -10 -10 -9 0 -30 -14 -119 -78 -35 -24 -134 -99 -149 -112 -7 -7
-41 -34 -75 -63 -171 -141 -394 -370 -552 -567 -121 -151 -315 -434 -315 -459
0 -6 -4 -11 -8 -11 -5 0 -19 -22 -32 -50 -13 -27 -27 -50 -31 -50 -4 0 -10
-12 -14 -27 -3 -16 -14 -36 -22 -45 -9 -10 -12 -18 -7 -18 5 0 4 -4 -2 -8 -10
-6 -60 -107 -117 -232 -28 -60 -104 -253 -117 -295 -7 -22 -16 -44 -20 -50 -6
-9 -31 -85 -36 -112 -3 -14 -23 -82 -31 -103 -7 -17 -9 -24 -18 -65 -9 -43
-13 -60 -15 -60 -2 0 -6 -17 -14 -55 -3 -14 -13 -56 -21 -95 -9 -38 -18 -83
-20 -100 -3 -16 -7 -41 -10 -55 -3 -14 -8 -42 -11 -64 -3 -21 -8 -48 -10 -60
-3 -11 -7 -46 -10 -76 -2 -30 -6 -62 -9 -70 -18 -66 -28 -659 -13 -800 18
-165 22 -207 23 -232 0 -16 2 -28 5 -28 3 0 6 -8 7 -17 1 -28 13 -116 18 -133
4 -15 13 -61 20 -110 2 -14 6 -34 9 -45 3 -11 15 -60 26 -110 12 -49 24 -97
27 -105 8 -21 11 -31 18 -64 3 -16 10 -37 16 -48 5 -10 8 -18 5 -18 -2 0 14
-51 36 -112 22 -62 43 -124 48 -138 13 -39 77 -196 100 -242 11 -23 20 -47 20
-53 0 -6 6 -17 13 -23 6 -7 12 -16 13 -20 0 -10 77 -166 84 -172 4 -3 21 -34
39 -70 19 -36 36 -67 40 -70 3 -3 17 -25 31 -50 13 -25 28 -49 32 -55 5 -5 34
-49 66 -96 82 -124 137 -201 161 -226 12 -13 19 -23 16 -23 -3 0 3 -8 13 -18
9 -11 31 -36 49 -58 139 -172 367 -404 523 -530 19 -16 37 -31 40 -35 11 -13
231 -176 310 -229 80 -53 115 -75 258 -158 54 -31 321 -166 332 -167 3 0 22
-9 42 -19 20 -9 42 -18 50 -20 7 -1 18 -4 23 -8 57 -35 419 -149 618 -194 9
-2 27 -6 40 -9 12 -3 37 -7 56 -10 18 -2 41 -7 50 -9 53 -16 330 -49 423 -50
27 -1 48 -3 48 -6 0 -6 382 -3 490 4 41 2 75 5 75 6 0 1 14 3 30 4 58 5 170
18 190 22 19 5 168 31 210 38 43 7 311 78 362 96 29 10 53 16 53 13 0 -3 6 -1
13 4 6 6 37 18 67 28 30 10 69 23 85 30 17 7 50 20 75 30 74 29 113 46 152 65
20 10 39 16 42 13 3 -4 6 -2 6 4 0 10 19 19 44 21 5 0 12 4 15 9 3 4 35 23 71
41 98 49 175 93 275 156 50 31 99 62 110 69 32 20 289 210 300 222 6 6 35 31
65 56 89 73 289 266 373 362 29 33 61 69 72 81 28 32 79 94 115 141 17 22 37
48 45 57 8 9 29 39 48 66 18 27 39 55 45 63 20 23 132 198 144 224 6 14 15 25
20 25 4 0 8 9 8 20 0 11 4 20 8 20 9 0 29 37 30 54 0 5 4 12 9 15 8 5 45 73
94 171 26 51 89 189 107 235 9 22 22 51 28 64 7 14 11 28 8 33 -3 4 -1 8 3 8
5 0 15 21 22 47 8 27 18 55 22 63 7 14 15 36 18 52 1 4 14 45 30 90 25 72 37
113 46 153 2 6 8 30 15 55 7 25 13 52 15 60 2 8 8 33 13 55 6 22 13 51 16 65
3 14 8 36 11 50 3 14 8 41 11 60 3 19 7 41 10 49 2 8 7 35 9 60 3 25 7 55 9
66 2 12 7 48 11 80 4 33 9 71 11 85 26 144 25 671 -1 905 -14 126 -24 206 -31
235 -3 14 -7 39 -10 55 -4 26 -39 200 -49 245 -10 45 -57 217 -62 230 -4 8 -8
22 -9 30 -4 18 -67 202 -85 245 -7 17 -13 35 -15 40 -1 6 -8 24 -15 40 -7 17
-13 32 -14 35 -5 15 -28 68 -58 132 -18 40 -46 101 -62 136 -16 34 -32 62 -37
62 -4 0 -8 7 -8 16 0 9 -9 28 -19 42 -10 15 -18 29 -18 32 2 9 -116 205 -125
208 -4 2 -8 8 -8 14 0 9 -137 216 -150 228 -3 3 -17 21 -30 40 -22 32 -137
178 -150 190 -3 3 -36 41 -75 85 -118 135 -291 302 -435 421 -82 68 -267 208
-302 229 -9 6 -63 40 -120 76 -281 180 -604 327 -958 437 -36 12 -77 23 -90
26 -14 3 -70 17 -125 31 -55 14 -113 27 -130 30 -16 2 -43 7 -60 10 -130 24
-154 28 -280 41 -33 3 -73 8 -90 10 -33 6 -531 14 -537 9z"/>
</g>
</svg>
