<?xml version="1.0" encoding="UTF-8" standalone="no"?>
<!-- Created with Inkscape (http://www.inkscape.org/) -->

<svg
   width="210mm"
   height="297mm"
   viewBox="0 0 793.70081 1122.5197"
   version="1.1"
   id="svg5"
   sodipodi:docname="Logo Acambaro Opina 2023-01-19.svg.2023_01_19_20_43_50.0.svg"
   inkscape:version="1.2.2 (732a01da63, 2022-12-09)"
   inkscape:export-filename="Logo Acambaro Opina 2023-01-19.svg.2023_01_19_20_43_50.0.png"
   inkscape:export-xdpi="96"
   inkscape:export-ydpi="96"
   xmlns:inkscape="http://www.inkscape.org/namespaces/inkscape"
   xmlns:sodipodi="http://sodipodi.sourceforge.net/DTD/sodipodi-0.dtd"
   xmlns="http://www.w3.org/2000/svg"
   xmlns:svg="http://www.w3.org/2000/svg">
  <sodipodi:namedview
     id="namedview7"
     pagecolor="#505050"
     bordercolor="#ffffff"
     borderopacity="1"
     inkscape:pageshadow="0"
     inkscape:pageopacity="0"
     inkscape:pagecheckerboard="1"
     inkscape:document-units="mm"
     showgrid="false"
     inkscape:snap-bbox="true"
     inkscape:snap-nodes="true"
     inkscape:object-paths="true"
     inkscape:snap-intersection-paths="true"
     inkscape:zoom="0.98520768"
     inkscape:cx="382.15293"
     inkscape:cy="509.53724"
     inkscape:window-width="1920"
     inkscape:window-height="986"
     inkscape:window-x="-11"
     inkscape:window-y="-11"
     inkscape:window-maximized="1"
     inkscape:current-layer="layer1"
     inkscape:object-nodes="false"
     inkscape:showpageshadow="0"
     inkscape:deskcolor="#505050"
     inkscape:lockguides="true" />
  <defs
     id="defs2">
    <rect
       x="506.4922"
       y="456.75649"
       width="189.8077"
       height="122.81674"
       id="rect1154" />
    <inkscape:path-effect
       effect="spiro"
       id="path-effect576"
       is_visible="true"
       lpeversion="1" />
    <inkscape:path-effect
       effect="spiro"
       id="path-effect572"
       is_visible="true"
       lpeversion="1" />
    <inkscape:path-effect
       effect="spiro"
       id="path-effect564"
       is_visible="true"
       lpeversion="1" />
    <inkscape:path-effect
       effect="spiro"
       id="path-effect560"
       is_visible="true"
       lpeversion="1" />
  </defs>
  <g
     inkscape:label="Capa 1"
     inkscape:groupmode="layer"
     id="layer1"
     style="fill:#ffffff">
    <ellipse
       style="fill:#ffffff;stroke:#000000;stroke-width:0"
       id="path1292"
       ry="411.58835"
       rx="396.8504"
       cy="548.6153"
       cx="396.8504" />
  </g>
  <g
     inkscape:groupmode="layer"
     id="layer2"
     inkscape:label="Capa 2"
     style="display:none">
    <path
       sodipodi:type="star"
       style="fill:#1a1a1a;stroke:#000000;stroke-width:0"
       id="path847"
       inkscape:flatsided="true"
       sodipodi:sides="8"
       sodipodi:cx="129.19025"
       sodipodi:cy="437.81143"
       sodipodi:r1="60.30587"
       sodipodi:r2="129.40965"
       sodipodi:arg1="0.90349018"
       sodipodi:arg2="1.2961892"
       inkscape:rounded="0"
       inkscape:randomized="0"
       d="M 166.51188,485.18119 122.08515,497.69729 81.820488,475.13306 69.304393,430.70633 91.868618,390.44167 136.29535,377.92558 176.56,400.4898 189.0761,444.91653 Z"
       transform="matrix(1.9348192,0,0,0.91610591,-82.012437,41.75383)" />
    <path
       sodipodi:type="star"
       style="fill:#1a1a1a;stroke:#000000;stroke-width:0"
       id="path847-1"
       inkscape:flatsided="true"
       sodipodi:sides="8"
       sodipodi:cx="129.19025"
       sodipodi:cy="437.81143"
       sodipodi:r1="60.30587"
       sodipodi:r2="129.40965"
       sodipodi:arg1="0.90349018"
       sodipodi:arg2="1.2961892"
       inkscape:rounded="0"
       inkscape:randomized="0"
       transform="matrix(1.9348192,0,0,0.91610591,-82.012437,41.75383)"
       d="M 166.51188,485.18119 122.08515,497.69729 81.820488,475.13306 69.304393,430.70633 91.868618,390.44167 136.29535,377.92558 176.56,400.4898 189.0761,444.91653 Z" />
    <path
       sodipodi:type="star"
       style="fill:#000000;stroke:#000000;stroke-width:0"
       id="path847-3"
       inkscape:flatsided="true"
       sodipodi:sides="8"
       sodipodi:cx="129.19025"
       sodipodi:cy="437.81143"
       sodipodi:r1="60.30587"
       sodipodi:r2="129.40965"
       sodipodi:arg1="0.90349018"
       sodipodi:arg2="1.2961892"
       inkscape:rounded="0"
       inkscape:randomized="0"
       transform="matrix(1.9348192,0,0,0.91610591,-75.021421,358.05928)"
       d="M 166.51188,485.18119 122.08515,497.69729 81.820488,475.13306 69.304393,430.70633 91.868618,390.44167 136.29535,377.92558 176.56,400.4898 189.0761,444.91653 Z" />
    <path
       style="fill:none;stroke:#000000;stroke-width:1px;stroke-linecap:butt;stroke-linejoin:miter;stroke-opacity:1"
       d="M 52.079032,436.32645 59.070048,752.6319"
       id="path1052" />
    <path
       style="fill:none;stroke:#000000;stroke-width:1px;stroke-linecap:butt;stroke-linejoin:miter;stroke-opacity:1"
       d="m 76.295415,477.02603 6.991016,316.30546"
       id="path1054" />
    <path
       style="fill:none;stroke:#000000;stroke-width:1px;stroke-linecap:butt;stroke-linejoin:miter;stroke-opacity:1"
       d="m 154.20024,497.69725 6.99102,316.30546"
       id="path1056" />
    <path
       style="fill:none;stroke:#000000;stroke-width:1px;stroke-linecap:butt;stroke-linejoin:miter;stroke-opacity:1"
       d="m 240.15794,486.23118 6.99102,316.30546"
       id="path1058" />
    <path
       style="fill:#1a1a1a;stroke:#000000;stroke-width:1px;stroke-linecap:butt;stroke-linejoin:miter;stroke-opacity:1"
       d="m 283.81564,449.34449 6.99101,316.30546"
       id="path1060" />
    <rect
       style="fill:#1a1a1a;stroke:#000000;stroke-width:0"
       id="rect1879"
       width="33.346771"
       height="92.586342"
       x="661.40778"
       y="579.92065" />
    <path
       style="fill:none;stroke:#000000;stroke-width:1px;stroke-linecap:butt;stroke-linejoin:miter;stroke-opacity:1"
       d="M 694.75641,579.92065 95.736729,399.43976"
       id="path1918" />
    <path
       style="fill:none;stroke:#000000;stroke-width:1px;stroke-linecap:butt;stroke-linejoin:miter;stroke-opacity:1"
       d="M 694.75641,672.50702 83.28643,793.33149"
       id="path1920" />
    <path
       style="fill:none;stroke:#000000;stroke-width:1px;stroke-linecap:butt;stroke-linejoin:miter;stroke-opacity:1"
       d="m 285.30656,516.8004 409.44986,85.3697"
       id="path2240" />
    <path
       style="fill:none;stroke:#000000;stroke-width:1px;stroke-linecap:butt;stroke-linejoin:miter;stroke-opacity:1"
       d="M 694.75642,613.06872 286.89555,588.69376"
       id="path1124" />
    <rect
       style="fill:#000000;stroke:#000000;stroke-width:0"
       id="rect1822"
       width="0.080739282"
       height="0.016834022"
       x="612.92944"
       y="585.10931" />
    <rect
       style="fill:#000000;stroke:#000000;stroke-width:0"
       id="rect1826"
       width="33.214672"
       height="140.00513"
       x="579.64868"
       y="555.24677" />
    <rect
       style="fill:#000000;stroke:#000000;stroke-width:0"
       id="rect1828"
       width="46.374928"
       height="184.98383"
       x="481.5434"
       y="529.65338" />
    <rect
       style="fill:#000000;stroke:#000000;stroke-width:0"
       id="rect1830"
       width="55.013584"
       height="246.25189"
       x="353.51764"
       y="493.68277" />
    <rect
       style="fill:#333333;stroke:#000000;stroke-width:0"
       id="rect1832"
       width="31.004074"
       height="98.713043"
       x="663.75043"
       y="579.92065" />
    <rect
       style="fill:#1a1a1a;stroke:#000000;stroke-width:0"
       id="rect1939"
       width="33.694416"
       height="252.67516"
       x="353.51776"
       y="487.25949" />
    <rect
       style="fill:#1a1a1a;stroke:#000000;stroke-width:0"
       id="rect1941"
       width="24.354958"
       height="191.6183"
       x="481.54343"
       y="523.01892" />
    <rect
       style="fill:#1a1a1a;stroke:#000000;stroke-width:0"
       id="rect1943"
       width="19.28907"
       height="144.20074"
       x="579.64886"
       y="551.05115" />
    <path
       style="fill:#000000;stroke:#000000;stroke-width:0"
       d="m 663.81944,629.30894 v -49.22819 h 15.46749 15.4675 l 2.2e-4,49.22819 2.2e-4,49.2282 h -15.46772 -15.46771 z"
       id="path2009" />
    <rect
       style="fill:#4d4d4d;stroke:#000000;stroke-width:0"
       id="rect2158"
       width="18.88755"
       height="101.68498"
       x="664.19904"
       y="576.4046" />
    <ellipse
       style="fill:#4d4d4d;stroke:#000000;stroke-width:0"
       id="path2951"
       cx="337.07068"
       cy="564.13153"
       rx="50.141495"
       ry="26.083982" />
    <ellipse
       style="fill:#4d4d4d;stroke:#000000;stroke-width:0"
       id="path2953"
       cx="457.21478"
       cy="579.37823"
       rx="48.683578"
       ry="16.584795" />
    <ellipse
       style="fill:#4d4d4d;stroke:#000000;stroke-width:0"
       id="path2955"
       cx="563.4281"
       cy="592.64502"
       rx="35.509804"
       ry="10.45295" />
    <ellipse
       style="fill:#4d4d4d;stroke:#000000;stroke-width:0"
       id="path356"
       cx="646.70557"
       cy="603.82892"
       rx="33.842239"
       ry="4.6212745" />
  </g>
  <g
     inkscape:groupmode="layer"
     id="layer3"
     inkscape:label="Lineart"
     style="display:none">
    <path
       style="fill:none;stroke:#000000;stroke-width:1px;stroke-linecap:butt;stroke-linejoin:miter;stroke-opacity:1"
       d="m 286.92919,564.13153 c 11.24112,-16.03467 30.55901,-26.08398 50.14149,-26.08398 19.58248,0 38.90037,10.04931 50.14149,26.08398"
       id="path558"
       inkscape:path-effect="#path-effect560"
       inkscape:original-d="m 286.92919,564.13153 c 16.71483,-8.69366 33.42866,-17.38832 50.14149,-26.08398 16.71283,-8.69566 33.42866,17.39032 50.14149,26.08398" />
    <path
       style="fill:none;stroke:#000000;stroke-width:1px;stroke-linecap:butt;stroke-linejoin:miter;stroke-opacity:1"
       d="m 408.5312,579.37823 c 13.82537,-10.65633 31.22798,-16.58479 48.68358,-16.58479 17.4556,0 34.85821,5.92846 48.68358,16.58479"
       id="path562"
       inkscape:path-effect="#path-effect564"
       inkscape:original-d="m 408.5312,579.37823 c 16.22886,-5.52726 32.45672,-11.05553 48.68358,-16.58479 16.22686,-5.52927 32.45672,11.05753 48.68358,16.58479" />
    <path
       style="fill:none;stroke:#000000;stroke-width:1px;stroke-linecap:butt;stroke-linejoin:miter;stroke-opacity:1"
       d="m 527.91829,592.64502 c 10.51396,-6.77721 23.00086,-10.45295 35.50981,-10.45295 12.50895,0 24.99584,3.67574 35.5098,10.45295"
       id="path570"
       inkscape:path-effect="#path-effect572"
       inkscape:original-d="m 527.91829,592.64502 c 11.83761,-3.48332 23.67421,-6.96764 35.50981,-10.45295 11.8356,-3.48532 23.6742,6.96963 35.5098,10.45295" />
    <path
       style="fill:none;stroke:#000000;stroke-width:1px;stroke-linecap:butt;stroke-linejoin:miter;stroke-opacity:1"
       d="m 612.86332,603.82891 c 11.00235,-3.06191 22.42179,-4.62127 33.84225,-4.62127 11.42046,0 22.83989,1.55936 33.84224,4.62127"
       id="path574"
       inkscape:path-effect="#path-effect576"
       inkscape:original-d="m 612.86332,603.82891 c 11.28175,-1.53942 22.56249,-3.07985 33.84225,-4.62127 11.27975,-1.54142 22.56249,3.08185 33.84224,4.62127" />
    <path
       style="fill:none;stroke:#000000;stroke-width:1px;stroke-linecap:butt;stroke-linejoin:miter;stroke-opacity:1"
       d="m 353.51764,540.38769 1.2e-4,199.54697 33.69443,-3e-5 -2e-5,-175.8031"
       id="path580" />
    <path
       style="fill:none;stroke:#000000;stroke-width:1px;stroke-linecap:butt;stroke-linejoin:miter;stroke-opacity:1"
       d="m 481.54343,565.01312 v 149.62409 h 24.35495 l -2e-5,-135.25898"
       id="path582" />
    <path
       style="fill:none;stroke:#000000;stroke-width:1px;stroke-linecap:butt;stroke-linejoin:miter;stroke-opacity:1"
       d="m 579.64886,584.24923 10e-6,111.00267 h 19.28906 l -3e-5,-102.60688"
       id="path584" />
    <path
       style="fill:none;stroke:#000000;stroke-width:1px;stroke-linecap:butt;stroke-linejoin:miter;stroke-opacity:1"
       d="m 661.40778,600.0685 2.34267,78.5652 19.33616,-0.5441 -2.5388,-74.2607"
       id="path586" />
    <path
       style="fill:none;stroke:#000000;stroke-width:1px;stroke-linecap:butt;stroke-linejoin:miter;stroke-opacity:1"
       d="m 598.93793,695.2519 13.92542,-6.56308 -6e-5,-133.44206 -13.92537,-4.19562 -2e-5,41.59388"
       id="path588" />
    <path
       style="fill:none;stroke:#000000;stroke-width:1px;stroke-linecap:butt;stroke-linejoin:miter;stroke-opacity:1"
       d="m 683.08659,678.0889 11.66793,-5.58188 -9e-5,-92.42627 -11.66784,-3.67615 -2.53878,27.4243"
       id="path590" />
    <path
       style="fill:none;stroke:#000000;stroke-width:1px;stroke-linecap:butt;stroke-linejoin:miter;stroke-opacity:1"
       d="m 505.89838,714.63721 22.01994,-9.16353 10e-6,-175.8203 -22.01996,-6.63446 -10e-6,56.35931"
       id="path592" />
    <path
       style="fill:none;stroke:#000000;stroke-width:1px;stroke-linecap:butt;stroke-linejoin:miter;stroke-opacity:1"
       d="m 387.21219,739.93463 21.31903,-10.87045 V 493.68279 l -21.31904,-6.4233 -10e-6,76.87218"
       id="path596" />
    <path
       style="fill:none;stroke:#000000;stroke-width:1px;stroke-linecap:butt;stroke-linejoin:miter;stroke-opacity:1"
       d="m 286.92919,564.13153 3.87746,201.51842 -43.65769,36.88668 -85.9577,11.46608 -77.90483,-20.67122 -24.216382,-40.69959 -6.991016,-316.30545 43.657697,-36.88669 163.862521,9.20515 24.21639,40.69958 0.15047,6.8076 103.24607,31.1074 118.68619,35.75943 93.03955,28.03222 95.8166,28.86951"
       id="path602" />
    <path
       style="fill:none;stroke:#000000;stroke-width:1px;stroke-linecap:butt;stroke-linejoin:miter;stroke-opacity:1"
       d="M 83.286431,793.33149 73.907881,417.88311"
       id="path606" />
    <path
       style="fill:none;stroke:#000000;stroke-width:1px;stroke-linecap:butt;stroke-linejoin:miter;stroke-opacity:1"
       d="M 161.19126,814.00271 155.30249,402.78593"
       id="path608" />
    <path
       style="fill:none;stroke:#000000;stroke-width:1px;stroke-linecap:butt;stroke-linejoin:miter;stroke-opacity:1"
       d="M 247.14896,802.53663 237.18713,407.38589"
       id="path610" />
  </g>
  <g
     id="layer4"
     inkscape:label="draw">
    <path
       style="fill:#000000;stroke:#000000;stroke-width:0"
       d="m 247.63576,795.83671 c 0.0116,-2.8953 -2.13502,-91.10149 -4.77031,-196.01374 -2.63529,-104.91225 -4.62962,-190.91137 -4.43184,-191.10915 0.19778,-0.19778 4.89887,-0.14292 10.44686,0.12193 l 10.08725,0.48153 11.72825,19.72059 c 10.6183,17.85424 11.76222,20.10092 12.08712,23.73923 l 0.35886,4.01863 51.31724,15.46503 51.31723,15.46503 0.1861,36.55762 0.18609,36.55762 -5.01291,-4.9909 c -8.90688,-8.86776 -19.75612,-14.75392 -31.95132,-17.3349 -6.42931,-1.36068 -21.82954,-0.92069 -27.98895,0.79966 -10.92211,3.0506 -21.97655,9.76919 -29.72481,18.06595 l -5.09891,5.45986 v 9.10042 c 0,5.00523 0.81328,50.56006 1.80728,101.23296 0.994,50.67291 1.7207,92.18814 1.61488,92.25608 -0.43516,0.27939 -33.55148,28.21115 -37.69346,31.79232 l -4.48577,3.87842 0.0211,-5.26419 z"
       id="path682" />
    <path
       style="fill:#000000;stroke:#000000;stroke-width:0"
       d="m 409.10244,536.22206 v -41.48094 l 33.19472,10.0126 c 18.25709,5.50693 39.81571,12.00492 47.90805,14.43998 l 14.71333,4.42739 0.18802,27.02997 0.18802,27.02998 -5.93551,-3.72483 c -3.26453,-2.04865 -8.35526,-4.66613 -11.31273,-5.8166 -2.95748,-1.15048 -5.53872,-2.31278 -5.73609,-2.58291 -0.19738,-0.27012 -0.84333,-0.4929 -1.43545,-0.49506 -0.59212,-0.002 -3.66039,-0.61147 -6.81838,-1.354 -7.90865,-1.85955 -24.82228,-1.89448 -33.37414,-0.0689 -8.14957,1.73968 -19.19845,6.21482 -26.01748,10.53789 l -5.56236,3.52638 z"
       id="path684" />
    <path
       style="fill:#000000;stroke:#000000;stroke-width:0"
       d="m 528.96228,560.81727 c 0,-28.09698 0.0745,-29.84922 1.25601,-29.53176 0.69081,0.18561 16.19157,4.82568 34.44613,10.31127 l 33.19011,9.97379 0.005,19.57006 0.005,19.57006 -3.76805,-1.90983 c -8.63811,-4.37819 -21.27659,-7.44476 -30.68268,-7.44476 -9.5284,0 -24.2862,3.70824 -31.35423,7.87848 -1.35346,0.79856 -2.60385,1.45193 -2.77867,1.45193 -0.17481,0 -0.31783,-13.44116 -0.31783,-29.86924 z"
       id="path686" />
    <path
       style="fill:#000000;stroke:#000000;stroke-width:0"
       d="m 613.65366,579.56463 v -23.1869 l 6.63894,1.99459 c 3.65142,1.09702 18.75053,5.63158 33.55358,10.07678 14.80305,4.44521 27.20516,8.34404 27.56025,8.66406 0.58193,0.52448 -0.37809,15.95721 -1.43089,23.00215 l -0.3901,2.61043 -3.71865,-0.95492 c -16.25077,-4.17305 -42.16997,-4.16733 -58.44508,0.0129 l -3.76805,0.96782 z"
       id="path688" />
    <path
       style="fill:#000000;stroke:#000000;stroke-width:0"
       d="M 600.01691,622.92704 V 552.5331 l 2.26392,0.49724 c 1.24516,0.27348 3.90971,1.05665 5.92122,1.74036 l 3.6573,1.24313 0.18315,66.03996 0.18315,66.03996 -5.71766,2.61362 c -3.14471,1.43748 -5.89168,2.61361 -6.10437,2.61361 -0.21269,0 -0.38671,-31.67727 -0.38671,-70.39394 z"
       id="path690" />
    <path
       style="fill:#000000;stroke:#000000;stroke-width:0"
       d="m 683.95078,675.9252 c -0.0219,-0.49839 -0.60564,-16.94155 -1.29725,-36.54034 -1.17863,-33.40024 -1.18268,-36.42708 -0.0645,-48.2822 0.65611,-6.95642 1.35221,-12.80732 1.54688,-13.002 0.19468,-0.19467 2.50246,0.30965 5.1284,1.12072 l 4.77443,1.47467 v 45.53759 45.53759 l -5.02406,2.53007 c -3.24386,1.63359 -5.03817,2.20899 -5.06386,1.6239 z"
       id="path692" />
    <path
       style="fill:#000000;stroke:#000000;stroke-width:0"
       d="m 506.71285,618.99922 c 0,-75.00613 0.18388,-94.33944 0.89715,-94.32455 0.49344,0.0103 4.93435,1.24634 9.8687,2.74677 l 8.97155,2.72804 0.18231,87.10934 c 0.10027,47.91013 -0.0612,87.35252 -0.35886,87.64974 -0.29765,0.29722 -4.8206,2.31645 -10.05102,4.48717 l -9.50983,3.94678 z"
       id="path694" />
    <path
       style="fill:#1a1a1a;stroke:#000000;stroke-width:0"
       d="m 388.28846,613.57035 c 0,-68.64032 0.24223,-124.79855 0.53829,-124.79605 0.29606,0.003 4.57549,1.23903 9.50984,2.74783 l 8.97154,2.74328 v 117.15597 117.15596 l -9.50984,4.89681 -9.50983,4.8968 z"
       id="path696" />
    <path
       style="fill:#1a1a1a;stroke:#000000;stroke-width:0"
       d="m 161.92989,800.76699 c -0.61887,-17.88838 -5.60401,-382.91302 -5.3343,-390.59087 l 0.22701,-6.46242 39.28104,2.20156 c 21.60457,1.21086 39.50658,2.4271 39.78224,2.70276 0.58531,0.58531 10.57196,392.32208 10.01576,392.87828 -0.20594,0.20594 -18.23363,2.74661 -40.06153,5.64593 -21.82791,2.89933 -40.54119,5.4292 -41.58507,5.62195 l -1.89797,0.35044 z"
       id="path767" />
    <path
       style="fill:#333333;stroke:#000000;stroke-width:0"
       d="m 120.93642,802.49577 -36.603899,-9.79572 -0.206487,-3.93466 c -0.529954,-10.09842 -9.314585,-370.02404 -9.041871,-370.4653 0.170698,-0.2762 4.997763,-4.44241 10.726813,-9.25827 l 10.416454,-8.75609 28.86214,1.62124 c 15.87418,0.89169 28.97645,1.72477 29.11616,1.8513 0.27892,0.25259 5.78864,374.48343 5.82443,395.60637 0.0204,12.03675 -0.0796,13.0915 -1.23382,13.01266 -0.69081,-0.0472 -17.72777,-4.49388 -37.85992,-9.88153 z"
       id="path838" />
    <path
       style="fill:#333333;stroke:#000000;stroke-width:0"
       d="m 354.55545,640.5683 c 0,-71.4375 0.21852,-98.687 0.79139,-98.687 0.43527,0 3.53882,1.28749 6.89678,2.86108 7.56909,3.547 14.80056,8.84585 19.95034,14.61861 l 3.93487,4.41088 0.003,87.74171 0.003,87.74171 h -15.78992 -15.78992 z"
       id="path840" />
    <path
       style="fill:#333333;stroke:#000000;stroke-width:0"
       d="M 482.31025,640.93763 V 567.7403 l 3.60298,1.42016 c 5.34527,2.10691 10.6002,4.87121 15.23726,8.0154 l 4.12691,2.79828 v 67.08041 67.08041 h -11.48358 -11.48357 z"
       id="path842" />
    <path
       style="fill:#333333;stroke:#000000;stroke-width:0"
       d="m 580.63838,640.13163 v -54.6248 l 1.97374,0.48637 c 1.08555,0.26751 4.96126,1.89691 8.61268,3.62091 l 6.63894,3.13452 v 51.0039 51.0039 h -8.61268 -8.61268 z"
       id="path844" />
    <path
       style="fill:#333333;stroke:#000000;stroke-width:0"
       d="m 664.59797,676.6339 c -0.008,-0.49343 -0.48498,-15.43105 -1.06053,-33.19471 -0.57556,-17.76366 -1.05369,-34.52263 -1.06252,-37.24217 l -0.0161,-4.9446 3.40919,0.40655 c 1.87505,0.2236 5.75076,0.94043 8.61268,1.59294 5.09374,1.16137 5.20467,1.23439 5.2589,3.46147 0.0305,1.25129 0.59568,17.69733 1.25602,36.54676 l 1.20061,34.27168 -8.79211,-3.8e-4 c -6.5475,-2.8e-4 -8.79571,-0.22942 -8.80618,-0.89754 z"
       id="path846" />
    <path
       style="fill:#4d4d4d;stroke:#000000;stroke-width:0"
       d="M 70.910524,770.66435 59.778635,751.81545 56.361448,594.39465 C 54.434354,505.6185 53.215461,436.70359 53.566196,436.35407 c 0.342064,-0.34088 4.820617,-4.1605 9.952341,-8.48805 l 9.330406,-7.86826 0.22369,3.70332 c 0.32818,5.43319 9.315414,365.40238 9.128419,365.62408 -0.08725,0.10346 -5.167989,-8.29391 -11.290528,-18.66081 z"
       id="path917" />
  </g>
  <g
     inkscape:groupmode="layer"
     id="layer5"
     inkscape:label="texto">
    <g
       id="g1161"
       transform="matrix(1.0373729,0,0,1.1834532,-10.977235,-56.233154)">
      <text
         xml:space="preserve"
         style="font-style:normal;font-variant:normal;font-weight:bold;font-stretch:normal;font-size:90.3327px;line-height:1.25;font-family:'Bodoni MT';-inkscape-font-specification:'Bodoni MT, Bold';font-variant-ligatures:normal;font-variant-caps:normal;font-variant-numeric:normal;font-variant-east-asian:normal;text-align:end;text-anchor:end;fill:#000000;fill-opacity:1;stroke:none;stroke-width:2.25831"
         x="677.58014"
         y="368.59531"
         id="text1044"
         transform="scale(1.0059318,0.99410319)"><tspan
           sodipodi:role="line"
           id="tspan1042"
           x="677.58014"
           y="368.59531"
           style="font-style:normal;font-variant:normal;font-weight:bold;font-stretch:normal;font-size:90.3327px;font-family:'Bodoni MT';-inkscape-font-specification:'Bodoni MT, Bold';font-variant-ligatures:normal;font-variant-caps:normal;font-variant-numeric:normal;font-variant-east-asian:normal;text-align:end;text-anchor:end;stroke-width:2.25831">Acámbaro</tspan><tspan
           sodipodi:role="line"
           x="677.58014"
           y="481.51117"
           id="tspan1046"
           style="font-style:normal;font-variant:normal;font-weight:bold;font-stretch:normal;font-size:90.3327px;font-family:'Bodoni MT';-inkscape-font-specification:'Bodoni MT, Bold';font-variant-ligatures:normal;font-variant-caps:normal;font-variant-numeric:normal;font-variant-east-asian:normal;text-align:end;text-anchor:end;stroke-width:2.25831">Elige</tspan></text>
    </g>
  </g>
</svg>
